<mxfile host="app.diagrams.net" agent="Mozilla/5.0 (Windows NT 10.0; Win64; x64; rv:136.0) Gecko/20100101 Firefox/136.0" version="26.1.0">
  <diagram name="1 oldal" id="Lfw7uH7mR_dwtOn-PWIH">
    <mxGraphModel dx="1167" dy="620" grid="1" gridSize="10" guides="1" tooltips="1" connect="1" arrows="1" fold="1" page="1" pageScale="1" pageWidth="827" pageHeight="1169" math="0" shadow="0">
      <root>
        <mxCell id="0" />
        <mxCell id="1" parent="0" />
        <mxCell id="7MCUvtR1y5PKWnJzMDMS-5" value="&lt;font style=&quot;font-size: 20px;&quot;&gt;A&lt;/font&gt;" style="rounded=0;whiteSpace=wrap;html=1;" vertex="1" parent="1">
          <mxGeometry x="340" y="210" width="120" height="60" as="geometry" />
        </mxCell>
        <mxCell id="7MCUvtR1y5PKWnJzMDMS-29" value="&lt;font style=&quot;font-size: 20px;&quot;&gt;E&lt;/font&gt;" style="rounded=0;whiteSpace=wrap;html=1;" vertex="1" parent="1">
          <mxGeometry x="827" y="210" width="120" height="60" as="geometry" />
        </mxCell>
        <mxCell id="7MCUvtR1y5PKWnJzMDMS-43" value="" style="endArrow=classic;startArrow=classic;html=1;rounded=0;entryX=1;entryY=0.5;entryDx=0;entryDy=0;exitX=0;exitY=0.5;exitDx=0;exitDy=0;" edge="1" parent="1" source="7MCUvtR1y5PKWnJzMDMS-29" target="7MCUvtR1y5PKWnJzMDMS-5">
          <mxGeometry width="50" height="50" relative="1" as="geometry">
            <mxPoint x="710" y="239.47" as="sourcePoint" />
            <mxPoint x="610" y="239.47" as="targetPoint" />
          </mxGeometry>
        </mxCell>
        <mxCell id="7MCUvtR1y5PKWnJzMDMS-44" value="&lt;font style=&quot;font-size: 20px;&quot;&gt;A-E&lt;/font&gt;" style="rhombus;whiteSpace=wrap;html=1;" vertex="1" parent="1">
          <mxGeometry x="610" y="210" width="60" height="60" as="geometry" />
        </mxCell>
        <mxCell id="7MCUvtR1y5PKWnJzMDMS-45" value="&lt;u&gt;&lt;font style=&quot;font-size: 20px;&quot;&gt;B.ID&lt;/font&gt;&lt;/u&gt;" style="ellipse;whiteSpace=wrap;html=1;" vertex="1" parent="1">
          <mxGeometry x="160" y="320" width="140" height="70" as="geometry" />
        </mxCell>
        <mxCell id="7MCUvtR1y5PKWnJzMDMS-46" value="&lt;font style=&quot;font-size: 20px;&quot;&gt;D&lt;/font&gt;" style="ellipse;whiteSpace=wrap;html=1;" vertex="1" parent="1">
          <mxGeometry x="330" y="320" width="140" height="70" as="geometry" />
        </mxCell>
        <mxCell id="7MCUvtR1y5PKWnJzMDMS-47" value="&lt;font style=&quot;font-size: 20px;&quot;&gt;C&lt;/font&gt;" style="ellipse;whiteSpace=wrap;html=1;" vertex="1" parent="1">
          <mxGeometry x="500" y="320" width="140" height="70" as="geometry" />
        </mxCell>
        <mxCell id="7MCUvtR1y5PKWnJzMDMS-48" value="" style="endArrow=none;html=1;rounded=0;exitX=0.5;exitY=0;exitDx=0;exitDy=0;entryX=0.5;entryY=1;entryDx=0;entryDy=0;" edge="1" parent="1" source="7MCUvtR1y5PKWnJzMDMS-46" target="7MCUvtR1y5PKWnJzMDMS-5">
          <mxGeometry width="50" height="50" relative="1" as="geometry">
            <mxPoint x="480" y="280" as="sourcePoint" />
            <mxPoint x="530" y="230" as="targetPoint" />
          </mxGeometry>
        </mxCell>
        <mxCell id="7MCUvtR1y5PKWnJzMDMS-49" value="" style="endArrow=none;html=1;rounded=0;exitX=0.5;exitY=0;exitDx=0;exitDy=0;entryX=0.5;entryY=1;entryDx=0;entryDy=0;" edge="1" parent="1" source="7MCUvtR1y5PKWnJzMDMS-47" target="7MCUvtR1y5PKWnJzMDMS-5">
          <mxGeometry width="50" height="50" relative="1" as="geometry">
            <mxPoint x="410" y="330" as="sourcePoint" />
            <mxPoint x="410" y="280" as="targetPoint" />
          </mxGeometry>
        </mxCell>
        <mxCell id="7MCUvtR1y5PKWnJzMDMS-50" value="" style="endArrow=none;html=1;rounded=0;exitX=0.5;exitY=0;exitDx=0;exitDy=0;entryX=0.5;entryY=1;entryDx=0;entryDy=0;" edge="1" parent="1" source="7MCUvtR1y5PKWnJzMDMS-45" target="7MCUvtR1y5PKWnJzMDMS-5">
          <mxGeometry width="50" height="50" relative="1" as="geometry">
            <mxPoint x="420" y="340" as="sourcePoint" />
            <mxPoint x="420" y="290" as="targetPoint" />
          </mxGeometry>
        </mxCell>
        <mxCell id="7MCUvtR1y5PKWnJzMDMS-51" value="&lt;font style=&quot;font-size: 20px;&quot;&gt;D3&lt;/font&gt;" style="ellipse;whiteSpace=wrap;html=1;" vertex="1" parent="1">
          <mxGeometry x="510" y="420" width="110" height="50" as="geometry" />
        </mxCell>
        <mxCell id="7MCUvtR1y5PKWnJzMDMS-52" value="&lt;font style=&quot;font-size: 20px;&quot;&gt;D2&lt;/font&gt;" style="ellipse;whiteSpace=wrap;html=1;" vertex="1" parent="1">
          <mxGeometry x="345" y="420" width="110" height="50" as="geometry" />
        </mxCell>
        <mxCell id="7MCUvtR1y5PKWnJzMDMS-53" value="&lt;font style=&quot;font-size: 20px;&quot;&gt;D1&lt;/font&gt;" style="ellipse;whiteSpace=wrap;html=1;" vertex="1" parent="1">
          <mxGeometry x="190" y="420" width="110" height="50" as="geometry" />
        </mxCell>
        <mxCell id="7MCUvtR1y5PKWnJzMDMS-54" value="" style="endArrow=none;html=1;rounded=0;exitX=0.5;exitY=0;exitDx=0;exitDy=0;fontStyle=4;entryX=0.5;entryY=1;entryDx=0;entryDy=0;" edge="1" parent="1" source="7MCUvtR1y5PKWnJzMDMS-52" target="7MCUvtR1y5PKWnJzMDMS-46">
          <mxGeometry width="50" height="50" relative="1" as="geometry">
            <mxPoint x="410" y="430" as="sourcePoint" />
            <mxPoint x="420" y="400" as="targetPoint" />
          </mxGeometry>
        </mxCell>
        <mxCell id="7MCUvtR1y5PKWnJzMDMS-58" value="" style="endArrow=classic;html=1;rounded=0;exitX=1;exitY=0.5;exitDx=0;exitDy=0;" edge="1" parent="1" source="7MCUvtR1y5PKWnJzMDMS-44">
          <mxGeometry width="50" height="50" relative="1" as="geometry">
            <mxPoint x="720" y="400" as="sourcePoint" />
            <mxPoint x="820" y="240" as="targetPoint" />
          </mxGeometry>
        </mxCell>
        <mxCell id="7MCUvtR1y5PKWnJzMDMS-59" value="" style="endArrow=none;html=1;rounded=0;exitX=0.5;exitY=0;exitDx=0;exitDy=0;entryX=0.5;entryY=1;entryDx=0;entryDy=0;" edge="1" parent="1" source="7MCUvtR1y5PKWnJzMDMS-51" target="7MCUvtR1y5PKWnJzMDMS-46">
          <mxGeometry width="50" height="50" relative="1" as="geometry">
            <mxPoint x="410" y="430" as="sourcePoint" />
            <mxPoint x="409.52" y="390" as="targetPoint" />
          </mxGeometry>
        </mxCell>
        <mxCell id="7MCUvtR1y5PKWnJzMDMS-60" value="" style="endArrow=none;html=1;rounded=0;exitX=0.5;exitY=0;exitDx=0;exitDy=0;entryX=0.5;entryY=1;entryDx=0;entryDy=0;" edge="1" parent="1" source="7MCUvtR1y5PKWnJzMDMS-53" target="7MCUvtR1y5PKWnJzMDMS-46">
          <mxGeometry width="50" height="50" relative="1" as="geometry">
            <mxPoint x="420" y="440" as="sourcePoint" />
            <mxPoint x="400" y="390" as="targetPoint" />
          </mxGeometry>
        </mxCell>
        <mxCell id="7MCUvtR1y5PKWnJzMDMS-61" value="" style="ellipse;whiteSpace=wrap;html=1;" vertex="1" parent="1">
          <mxGeometry x="832" y="100" width="110" height="70" as="geometry" />
        </mxCell>
        <mxCell id="7MCUvtR1y5PKWnJzMDMS-62" value="&lt;font style=&quot;font-size: 20px;&quot;&gt;I&lt;/font&gt;" style="ellipse;whiteSpace=wrap;html=1;" vertex="1" parent="1">
          <mxGeometry x="842" y="105" width="90" height="60" as="geometry" />
        </mxCell>
        <mxCell id="7MCUvtR1y5PKWnJzMDMS-63" value="" style="endArrow=none;html=1;rounded=0;entryX=0.5;entryY=1;entryDx=0;entryDy=0;exitX=0.5;exitY=0;exitDx=0;exitDy=0;" edge="1" parent="1" source="7MCUvtR1y5PKWnJzMDMS-29" target="7MCUvtR1y5PKWnJzMDMS-61">
          <mxGeometry width="50" height="50" relative="1" as="geometry">
            <mxPoint x="870" y="370" as="sourcePoint" />
            <mxPoint x="920" y="320" as="targetPoint" />
          </mxGeometry>
        </mxCell>
        <mxCell id="7MCUvtR1y5PKWnJzMDMS-64" value="&lt;font style=&quot;font-size: 20px;&quot;&gt;H&lt;/font&gt;" style="ellipse;whiteSpace=wrap;html=1;" vertex="1" parent="1">
          <mxGeometry x="980" y="310" width="110" height="50" as="geometry" />
        </mxCell>
        <mxCell id="7MCUvtR1y5PKWnJzMDMS-65" value="&lt;u&gt;&lt;font style=&quot;font-size: 20px;&quot;&gt;F&lt;/font&gt;&lt;/u&gt;" style="ellipse;whiteSpace=wrap;html=1;" vertex="1" parent="1">
          <mxGeometry x="832" y="310" width="110" height="50" as="geometry" />
        </mxCell>
        <mxCell id="7MCUvtR1y5PKWnJzMDMS-66" value="&lt;font style=&quot;font-size: 20px;&quot;&gt;G&lt;/font&gt;" style="ellipse;whiteSpace=wrap;html=1;" vertex="1" parent="1">
          <mxGeometry x="690" y="310" width="110" height="50" as="geometry" />
        </mxCell>
        <mxCell id="7MCUvtR1y5PKWnJzMDMS-67" value="" style="endArrow=none;html=1;rounded=0;exitX=0.5;exitY=0;exitDx=0;exitDy=0;entryX=0.5;entryY=1;entryDx=0;entryDy=0;" edge="1" parent="1" source="7MCUvtR1y5PKWnJzMDMS-65">
          <mxGeometry width="50" height="50" relative="1" as="geometry">
            <mxPoint x="886.52" y="320" as="sourcePoint" />
            <mxPoint x="886.52" y="270" as="targetPoint" />
          </mxGeometry>
        </mxCell>
        <mxCell id="7MCUvtR1y5PKWnJzMDMS-68" value="" style="endArrow=none;html=1;rounded=0;exitX=0.5;exitY=0;exitDx=0;exitDy=0;entryX=0.5;entryY=1;entryDx=0;entryDy=0;" edge="1" parent="1" source="7MCUvtR1y5PKWnJzMDMS-64">
          <mxGeometry width="50" height="50" relative="1" as="geometry">
            <mxPoint x="897" y="320" as="sourcePoint" />
            <mxPoint x="887" y="270" as="targetPoint" />
          </mxGeometry>
        </mxCell>
        <mxCell id="7MCUvtR1y5PKWnJzMDMS-69" value="" style="endArrow=none;html=1;rounded=0;exitX=0.5;exitY=0;exitDx=0;exitDy=0;entryX=0.5;entryY=1;entryDx=0;entryDy=0;" edge="1" parent="1" source="7MCUvtR1y5PKWnJzMDMS-66">
          <mxGeometry width="50" height="50" relative="1" as="geometry">
            <mxPoint x="907" y="330" as="sourcePoint" />
            <mxPoint x="887" y="270" as="targetPoint" />
          </mxGeometry>
        </mxCell>
        <mxCell id="7MCUvtR1y5PKWnJzMDMS-92" value="&lt;font style=&quot;font-size: 20px;&quot;&gt;J&lt;/font&gt;" style="ellipse;whiteSpace=wrap;html=1;" vertex="1" parent="1">
          <mxGeometry x="515" y="90" width="110" height="50" as="geometry" />
        </mxCell>
        <mxCell id="7MCUvtR1y5PKWnJzMDMS-93" value="&lt;font style=&quot;font-size: 20px;&quot;&gt;K&lt;/font&gt;" style="ellipse;whiteSpace=wrap;html=1;dashed=1;dashPattern=12 12;" vertex="1" parent="1">
          <mxGeometry x="660" y="90" width="110" height="50" as="geometry" />
        </mxCell>
        <mxCell id="7MCUvtR1y5PKWnJzMDMS-94" value="" style="endArrow=none;html=1;rounded=0;entryX=0.5;entryY=1;entryDx=0;entryDy=0;exitX=0.5;exitY=0;exitDx=0;exitDy=0;" edge="1" parent="1" source="7MCUvtR1y5PKWnJzMDMS-44" target="7MCUvtR1y5PKWnJzMDMS-92">
          <mxGeometry width="50" height="50" relative="1" as="geometry">
            <mxPoint x="660" y="360" as="sourcePoint" />
            <mxPoint x="710" y="310" as="targetPoint" />
          </mxGeometry>
        </mxCell>
        <mxCell id="7MCUvtR1y5PKWnJzMDMS-95" value="" style="endArrow=none;html=1;rounded=0;entryX=0.5;entryY=1;entryDx=0;entryDy=0;exitX=0.5;exitY=0;exitDx=0;exitDy=0;" edge="1" parent="1" source="7MCUvtR1y5PKWnJzMDMS-44" target="7MCUvtR1y5PKWnJzMDMS-93">
          <mxGeometry width="50" height="50" relative="1" as="geometry">
            <mxPoint x="640" y="210" as="sourcePoint" />
            <mxPoint x="580" y="150" as="targetPoint" />
          </mxGeometry>
        </mxCell>
      </root>
    </mxGraphModel>
  </diagram>
</mxfile>
